<svg width="250" height="250" viewBox="0 0 250 250" fill="none" xmlns="http://www.w3.org/2000/svg">
<path d="M0 10C0 4.47716 4.47715 0 10 0H240C245.523 0 250 4.47715 250 10V240C250 245.523 245.523 250 240 250H10C4.47716 250 0 245.523 0 240V10Z" fill="#F9D6D6"/>
<path d="M87.5693 78L78.0723 63.0586H73.751V78H70.6016V42.9902H81.71C82.8981 42.9902 84.013 43.2181 85.0547 43.6738C86.0964 44.1133 87.0078 44.7236 87.7891 45.5049C88.5703 46.2861 89.1807 47.2057 89.6201 48.2637C90.0758 49.3053 90.3037 50.4202 90.3037 51.6084V54.4404C90.3037 55.6286 90.0758 56.7516 89.6201 57.8096C89.1807 58.8512 88.5703 59.7627 87.7891 60.5439C87.0078 61.3252 86.0964 61.9437 85.0547 62.3994C84.013 62.8389 82.8981 63.0586 81.71 63.0586L91.207 78H87.5693ZM87.1543 51.6084C87.1543 50.8271 87.0078 50.1029 86.7148 49.4355C86.4219 48.752 86.0231 48.1579 85.5186 47.6533C85.014 47.1325 84.4199 46.7256 83.7363 46.4326C83.069 46.1396 82.3447 45.9932 81.5635 45.9932H73.751V60.0557H81.5635C82.3447 60.0557 83.069 59.9092 83.7363 59.6162C84.4199 59.3232 85.014 58.9245 85.5186 58.4199C86.0231 57.8991 86.4219 57.305 86.7148 56.6377C87.0078 55.9541 87.1543 55.2217 87.1543 54.4404V51.6084Z" fill="#EA2424"/>
<path d="M116.427 69.8945C116.427 71.0827 116.199 72.1976 115.743 73.2393C115.304 74.2809 114.693 75.1924 113.912 75.9736C113.131 76.7549 112.219 77.3734 111.178 77.8291C110.136 78.2686 109.021 78.4883 107.833 78.4883H105.343C104.155 78.4883 103.032 78.2686 101.974 77.8291C100.932 77.3734 100.021 76.7549 99.2393 75.9736C98.458 75.1924 97.8395 74.2809 97.3838 73.2393C96.9443 72.1976 96.7246 71.0827 96.7246 69.8945V51.0957C96.7246 49.9076 96.9443 48.7926 97.3838 47.751C97.8395 46.7093 98.458 45.7979 99.2393 45.0166C100.021 44.2354 100.932 43.625 101.974 43.1855C103.032 42.7298 104.155 42.502 105.343 42.502H107.833C109.021 42.502 110.136 42.7298 111.178 43.1855C112.219 43.625 113.131 44.2354 113.912 45.0166C114.693 45.7979 115.304 46.7093 115.743 47.751C116.199 48.7926 116.427 49.9076 116.427 51.0957V69.8945ZM113.277 51.0957C113.277 50.3145 113.131 49.5902 112.838 48.9229C112.545 48.2393 112.146 47.6452 111.642 47.1406C111.137 46.6361 110.543 46.2373 109.859 45.9443C109.192 45.6514 108.468 45.5049 107.687 45.5049H105.489C104.708 45.5049 103.976 45.6514 103.292 45.9443C102.625 46.2373 102.031 46.6361 101.51 47.1406C101.005 47.6452 100.606 48.2393 100.313 48.9229C100.021 49.5902 99.874 50.3145 99.874 51.0957V69.8945C99.874 70.6758 100.021 71.4082 100.313 72.0918C100.606 72.7591 101.005 73.3532 101.51 73.874C102.031 74.3786 102.625 74.7773 103.292 75.0703C103.976 75.3633 104.708 75.5098 105.489 75.5098H107.687C108.468 75.5098 109.192 75.3633 109.859 75.0703C110.543 74.7773 111.137 74.3786 111.642 73.874C112.146 73.3532 112.545 72.7591 112.838 72.0918C113.131 71.4082 113.277 70.6758 113.277 69.8945V51.0957Z" fill="#EA2424"/>
<path d="M143.136 69.8945C143.136 71.0827 142.908 72.1976 142.452 73.2393C142.013 74.2809 141.402 75.1924 140.621 75.9736C139.84 76.7549 138.928 77.3734 137.887 77.8291C136.845 78.2686 135.73 78.4883 134.542 78.4883H132.052C130.864 78.4883 129.741 78.2686 128.683 77.8291C127.641 77.3734 126.729 76.7549 125.948 75.9736C125.167 75.1924 124.549 74.2809 124.093 73.2393C123.653 72.1976 123.434 71.0827 123.434 69.8945V51.0957C123.434 49.9076 123.653 48.7926 124.093 47.751C124.549 46.7093 125.167 45.7979 125.948 45.0166C126.729 44.2354 127.641 43.625 128.683 43.1855C129.741 42.7298 130.864 42.502 132.052 42.502H134.542C135.73 42.502 136.845 42.7298 137.887 43.1855C138.928 43.625 139.84 44.2354 140.621 45.0166C141.402 45.7979 142.013 46.7093 142.452 47.751C142.908 48.7926 143.136 49.9076 143.136 51.0957V69.8945ZM139.986 51.0957C139.986 50.3145 139.84 49.5902 139.547 48.9229C139.254 48.2393 138.855 47.6452 138.351 47.1406C137.846 46.6361 137.252 46.2373 136.568 45.9443C135.901 45.6514 135.177 45.5049 134.396 45.5049H132.198C131.417 45.5049 130.685 45.6514 130.001 45.9443C129.334 46.2373 128.74 46.6361 128.219 47.1406C127.714 47.6452 127.315 48.2393 127.022 48.9229C126.729 49.5902 126.583 50.3145 126.583 51.0957V69.8945C126.583 70.6758 126.729 71.4082 127.022 72.0918C127.315 72.7591 127.714 73.3532 128.219 73.874C128.74 74.3786 129.334 74.7773 130.001 75.0703C130.685 75.3633 131.417 75.5098 132.198 75.5098H134.396C135.177 75.5098 135.901 75.3633 136.568 75.0703C137.252 74.7773 137.846 74.3786 138.351 73.874C138.855 73.3532 139.254 72.7591 139.547 72.0918C139.84 71.4082 139.986 70.6758 139.986 69.8945V51.0957Z" fill="#EA2424"/>
<path d="M172.213 78V54.001L171.993 55.4902L163.863 78H162.203L154 55.4902L153.805 54.001V78H150.655V42.9902H152.291L162.911 71.7012L163.009 72.9951L163.106 71.7012L173.702 42.9902H175.362V78H172.213Z" fill="#EA2424"/>
<path d="M107.125 142L92.5254 116.512L92.2324 114.998V142H89.083V106.99H90.7188L105.318 132.503L105.636 133.992V106.99H108.785V142H107.125Z" fill="#EA2424"/>
<path d="M136.007 133.895C136.007 135.083 135.779 136.198 135.323 137.239C134.884 138.281 134.273 139.192 133.492 139.974C132.711 140.755 131.799 141.373 130.758 141.829C129.716 142.269 128.601 142.488 127.413 142.488H124.923C123.735 142.488 122.612 142.269 121.554 141.829C120.512 141.373 119.601 140.755 118.819 139.974C118.038 139.192 117.42 138.281 116.964 137.239C116.524 136.198 116.305 135.083 116.305 133.895V115.096C116.305 113.908 116.524 112.793 116.964 111.751C117.42 110.709 118.038 109.798 118.819 109.017C119.601 108.235 120.512 107.625 121.554 107.186C122.612 106.73 123.735 106.502 124.923 106.502H127.413C128.601 106.502 129.716 106.73 130.758 107.186C131.799 107.625 132.711 108.235 133.492 109.017C134.273 109.798 134.884 110.709 135.323 111.751C135.779 112.793 136.007 113.908 136.007 115.096V133.895ZM132.857 115.096C132.857 114.314 132.711 113.59 132.418 112.923C132.125 112.239 131.726 111.645 131.222 111.141C130.717 110.636 130.123 110.237 129.439 109.944C128.772 109.651 128.048 109.505 127.267 109.505H125.069C124.288 109.505 123.556 109.651 122.872 109.944C122.205 110.237 121.611 110.636 121.09 111.141C120.585 111.645 120.187 112.239 119.894 112.923C119.601 113.59 119.454 114.314 119.454 115.096V133.895C119.454 134.676 119.601 135.408 119.894 136.092C120.187 136.759 120.585 137.353 121.09 137.874C121.611 138.379 122.205 138.777 122.872 139.07C123.556 139.363 124.288 139.51 125.069 139.51H127.267C128.048 139.51 128.772 139.363 129.439 139.07C130.123 138.777 130.717 138.379 131.222 137.874C131.726 137.353 132.125 136.759 132.418 136.092C132.711 135.408 132.857 134.676 132.857 133.895V115.096Z" fill="#EA2424"/>
<path d="M152.022 109.993V142H148.873V109.993H140.523V106.99H160.372V109.993H152.022Z" fill="#EA2424"/>
<path d="M69.625 173.993V187.006H83.0283V190.009H69.625V206H66.4756V170.99H86.1777V173.993H69.625Z" fill="#EA2424"/>
<path d="M110.372 197.895C110.372 199.083 110.144 200.198 109.688 201.239C109.249 202.281 108.639 203.192 107.857 203.974C107.076 204.755 106.165 205.373 105.123 205.829C104.081 206.269 102.966 206.488 101.778 206.488H99.2881C98.0999 206.488 96.9769 206.269 95.9189 205.829C94.8773 205.373 93.9658 204.755 93.1846 203.974C92.4033 203.192 91.7848 202.281 91.3291 201.239C90.8896 200.198 90.6699 199.083 90.6699 197.895V179.096C90.6699 177.908 90.8896 176.793 91.3291 175.751C91.7848 174.709 92.4033 173.798 93.1846 173.017C93.9658 172.235 94.8773 171.625 95.9189 171.186C96.9769 170.73 98.0999 170.502 99.2881 170.502H101.778C102.966 170.502 104.081 170.73 105.123 171.186C106.165 171.625 107.076 172.235 107.857 173.017C108.639 173.798 109.249 174.709 109.688 175.751C110.144 176.793 110.372 177.908 110.372 179.096V197.895ZM107.223 179.096C107.223 178.314 107.076 177.59 106.783 176.923C106.49 176.239 106.091 175.645 105.587 175.141C105.082 174.636 104.488 174.237 103.805 173.944C103.137 173.651 102.413 173.505 101.632 173.505H99.4346C98.6533 173.505 97.9209 173.651 97.2373 173.944C96.57 174.237 95.9759 174.636 95.4551 175.141C94.9505 175.645 94.5518 176.239 94.2588 176.923C93.9658 177.59 93.8193 178.314 93.8193 179.096V197.895C93.8193 198.676 93.9658 199.408 94.2588 200.092C94.5518 200.759 94.9505 201.353 95.4551 201.874C95.9759 202.379 96.57 202.777 97.2373 203.07C97.9209 203.363 98.6533 203.51 99.4346 203.51H101.632C102.413 203.51 103.137 203.363 103.805 203.07C104.488 202.777 105.082 202.379 105.587 201.874C106.091 201.353 106.49 200.759 106.783 200.092C107.076 199.408 107.223 198.676 107.223 197.895V179.096Z" fill="#EA2424"/>
<path d="M137.081 197.895C137.081 199.083 136.853 200.198 136.397 201.239C135.958 202.281 135.348 203.192 134.566 203.974C133.785 204.755 132.874 205.373 131.832 205.829C130.79 206.269 129.675 206.488 128.487 206.488H125.997C124.809 206.488 123.686 206.269 122.628 205.829C121.586 205.373 120.675 204.755 119.894 203.974C119.112 203.192 118.494 202.281 118.038 201.239C117.599 200.198 117.379 199.083 117.379 197.895V170.99H120.528V197.895C120.528 198.676 120.675 199.408 120.968 200.092C121.261 200.759 121.66 201.353 122.164 201.874C122.685 202.379 123.279 202.777 123.946 203.07C124.63 203.363 125.362 203.51 126.144 203.51H128.341C129.122 203.51 129.846 203.363 130.514 203.07C131.197 202.777 131.791 202.379 132.296 201.874C132.8 201.353 133.199 200.759 133.492 200.092C133.785 199.408 133.932 198.676 133.932 197.895V170.99H137.081V197.895Z" fill="#EA2424"/>
<path d="M162.643 206L148.043 180.512L147.75 178.998V206H144.601V170.99H146.236L160.836 196.503L161.153 197.992V170.99H164.303V206H162.643Z" fill="#EA2424"/>
<path d="M192.037 197.406C192.037 198.594 191.809 199.709 191.354 200.751C190.914 201.793 190.304 202.704 189.522 203.485C188.741 204.267 187.822 204.885 186.764 205.341C185.722 205.78 184.607 206 183.419 206H172.335V170.99H183.419C184.607 170.99 185.722 171.218 186.764 171.674C187.822 172.113 188.741 172.724 189.522 173.505C190.304 174.286 190.914 175.206 191.354 176.264C191.809 177.305 192.037 178.42 192.037 179.608V197.406ZM188.888 179.608C188.888 178.827 188.741 178.103 188.448 177.436C188.155 176.752 187.748 176.158 187.228 175.653C186.723 175.132 186.129 174.726 185.445 174.433C184.778 174.14 184.054 173.993 183.272 173.993H175.484V202.997H183.272C184.054 202.997 184.778 202.851 185.445 202.558C186.129 202.265 186.723 201.866 187.228 201.361C187.748 200.857 188.155 200.271 188.448 199.604C188.741 198.92 188.888 198.188 188.888 197.406V179.608Z" fill="#EA2424"/>
</svg>
